# xmcd CD database file
#
# Track frame offsets:
#	150
#	23325
#	47400
#	80175
#	98325
#	124125
#	144300
#	159600
#	183525
#	197700
#	211650
#	229050
#	252825
#	276487
#	297675
#
# Disc length: 4202 seconds
#
# Revision: 0
# Processed by: cddbd v1.5.1PL0 Copyright (c) Steve Scherf et al.
# Submitted via: CDex 1.50beta10
#
DISCID=d210680f
DTITLE=Sunnyland Slim Blues Band - Decoration Day
DYEAR=1994
DGENRE=Blues
TTITLE0=The Sun Is Going Down
TTITLE1=Past Life
TTITLE2=Decoration Day
TTITLE3=Boogie'n the Blues
TTITLE4=Depression Blues
TTITLE5=Tired of Traveling
TTITLE6=Canadian Walk
TTITLE7=Patience Like Jobe
TTITLE8=Sunnyland Jump
TTITLE9=Rock Little Daddy
TTITLE10=Everytime I Get to Drinking
TTITLE11=Sunnyland's New Orleans Boogie
TTITLE12=One Room Country Shack
TTITLE13=Tin Pan Alley
TTITLE14=Dust My Broom
EXTD=YEAR: 1994
EXTT0=
EXTT1=
EXTT2=
EXTT3=
EXTT4=
EXTT5=
EXTT6=
EXTT7=
EXTT8=
EXTT9=
EXTT10=
EXTT11=
EXTT12=
EXTT13=
EXTT14=
PLAYORDER=
